{"accessors" : [{"bufferView" : 0, "byteOffset" : 0, "componentType" : 5123, "count" : 432, "type" : "SCALAR", "max" : [431], "min" : [0]}, {"bufferView" : 1, "byteOffset" : 0, "componentType" : 5126, "count" : 432, "type" : "VEC3", "max" : [1.0392048358917236, 1.0376657247543335, 0.8721621632575989], "min" : [-0.9868143796920776, -1.0391759872436523, -0.5571078062057495], "name" : "POSITION"}, {"bufferView" : 1, "byteOffset" : 12, "componentType" : 5126, "count" : 432, "type" : "VEC3", "max" : [0.9854167103767395, 0.9846535325050354, 0.9991381168365479], "min" : [-0.8882706761360168, -0.9846534729003906, -0.8663718104362488], "name" : "NORMAL"}, {"bufferView" : 1, "byteOffset" : 24, "componentType" : 5126, "count" : 432, "type" : "VEC2", "max" : [0.9772724509239197, -0.1574609875679016], "min" : [0, -0.39365148544311523], "name" : "TEXCOORD_0"}, {"bufferView" : 0, "byteOffset" : 864, "componentType" : 5123, "count" : 657, "type" : "SCALAR", "max" : [656], "min" : [0]}, {"bufferView" : 2, "byteOffset" : 0, "componentType" : 5126, "count" : 657, "type" : "VEC3", "max" : [0.956625759601593, 0.955422043800354, 0.9679496884346008], "min" : [-0.9999999403953552, -0.9999999403953552, -0.9679496884346008], "name" : "POSITION"}, {"bufferView" : 2, "byteOffset" : 12, "componentType" : 5126, "count" : 657, "type" : "VEC3", "max" : [0.936575174331665, 0.9371846318244934, 0.9574937224388123], "min" : [-0.985416829586029, -0.9846534729003906, -0.957493245601654], "name" : "NORMAL"}, {"bufferView" : 2, "byteOffset" : 24, "componentType" : 5126, "count" : 657, "type" : "VEC2", "max" : [1, -0.0393652506172657], "min" : [0, -0.43301674723625183], "name" : "TEXCOORD_0"}, {"bufferView" : 0, "byteOffset" : 2180, "componentType" : 5123, "count" : 225, "type" : "SCALAR", "max" : [224], "min" : [0]}, {"bufferView" : 3, "byteOffset" : 0, "componentType" : 5126, "count" : 225, "type" : "VEC3", "max" : [0.42532268166542053, 0.32012876868247986, 1.0272486209869385], "min" : [-0.6958060264587402, -0.6956083178520203, -1.0380337238311768], "name" : "POSITION"}, {"bufferView" : 3, "byteOffset" : 12, "componentType" : 5126, "count" : 225, "type" : "VEC3", "max" : [0.9991164803504944, 0.9806901216506958, 0.9877904057502747], "min" : [-0.8515655398368835, -0.9372045993804932, -0.9877902865409851], "name" : "NORMAL"}, {"bufferView" : 3, "byteOffset" : 24, "componentType" : 5126, "count" : 225, "type" : "VEC2", "max" : [0.9772724509239197, -0], "min" : [0.04545449838042259, -0.4723820090293884], "name" : "TEXCOORD_0"}, {"bufferView" : 0, "byteOffset" : 2632, "componentType" : 5123, "count" : 30, "type" : "SCALAR", "max" : [29], "min" : [0]}, {"bufferView" : 4, "byteOffset" : 0, "componentType" : 5126, "count" : 30, "type" : "VEC3", "max" : [0.2282869815826416, 0.2282869815826416, 1.7474232912063599], "min" : [-0.2282869815826416, -0.2282869815826416, 0], "name" : "POSITION"}, {"bufferView" : 4, "byteOffset" : 12, "componentType" : 5126, "count" : 30, "type" : "VEC3", "max" : [1.0000044107437134, 1.0000044107437134, 0], "min" : [-1.0000044107437134, -1.0000044107437134, -1.0000044107437134], "name" : "NORMAL"}, {"bufferView" : 4, "byteOffset" : 24, "componentType" : 5126, "count" : 30, "type" : "VEC2", "max" : [1, -0], "min" : [0, -1], "name" : "TEXCOORD_0"}, {"bufferView" : 0, "byteOffset" : 2692, "componentType" : 5123, "count" : 54, "type" : "SCALAR", "max" : [53], "min" : [0]}, {"bufferView" : 5, "byteOffset" : 0, "componentType" : 5126, "count" : 54, "type" : "VEC3", "max" : [0.6698316335678101, 0.6698316335678101, 2.7534399032592773], "min" : [-0.6698316335678101, -0.6698316335678101, 1.7474232912063599], "name" : "POSITION"}, {"bufferView" : 5, "byteOffset" : 12, "componentType" : 5126, "count" : 54, "type" : "VEC3", "max" : [0.999890148639679, 0.999890148639679, 1.0000044107437134], "min" : [-0.999890148639679, -0.999890148639679, -0.9920381307601929], "name" : "NORMAL"}, {"bufferView" : 5, "byteOffset" : 24, "componentType" : 5126, "count" : 54, "type" : "VEC2", "max" : [1, -0], "min" : [0, -1], "name" : "TEXCOORD_0"}, {"bufferView" : 0, "byteOffset" : 2800, "componentType" : 5123, "count" : 1920, "type" : "SCALAR", "max" : [1919], "min" : [0]}, {"bufferView" : 6, "byteOffset" : 0, "componentType" : 5126, "count" : 1920, "type" : "VEC3", "max" : [11.455429077148438, 4.998599052429199, 3.4243412017822266], "min" : [-1.7959182262420654, -8.223499298095703, -1.0851670503616333], "name" : "POSITION"}, {"bufferView" : 6, "byteOffset" : 12, "componentType" : 5126, "count" : 1920, "type" : "VEC3", "max" : [0.9920817613601685, 0.9435266852378845, 0.9435293078422546], "min" : [-0.9920817613601685, -0.9435264468193054, -0.9435280561447144], "name" : "NORMAL"}, {"bufferView" : 6, "byteOffset" : 24, "componentType" : 5126, "count" : 1920, "type" : "VEC2", "max" : [1, -0], "min" : [0, -0.4723820090293884], "name" : "TEXCOORD_0"}], "asset" : {"generator" : "Aspose.3D 21.10", "version" : "2.0"}, "buffers" : [{"uri" : "data:application/octet-stream;base64,", "byteLength" : 112844}], "bufferViews" : [{"buffer" : 0, "byteOffset" : 0, "byteLength" : 6640, "target" : 34963}, {"buffer" : 0, "byteOffset" : 6644, "byteLength" : 13824, "byteStride" : 32, "target" : 34962}, {"buffer" : 0, "byteOffset" : 20472, "byteLength" : 21024, "byteStride" : 32, "target" : 34962}, {"buffer" : 0, "byteOffset" : 41500, "byteLength" : 7200, "byteStride" : 32, "target" : 34962}, {"buffer" : 0, "byteOffset" : 48704, "byteLength" : 960, "byteStride" : 32, "target" : 34962}, {"buffer" : 0, "byteOffset" : 49668, "byteLength" : 1728, "byteStride" : 32, "target" : 34962}, {"buffer" : 0, "byteOffset" : 51400, "byteLength" : 61440, "byteStride" : 32, "target" : 34962}], "materials" : [{"name" : "", "pbrMetallicRoughness" : {"baseColorFactor" : [0.16995590925216675, 0.43854397535324097, 0.06176968663930893, 1], "metallicFactor" : 0, "roughnessFactor" : 0}, "emissiveFactor" : [0.16995590925216675, 0.43854397535324097, 0.06176968663930893], "alphaMode" : "OPAQUE", "doubleSided" : false}, {"name" : "", "pbrMetallicRoughness" : {"baseColorFactor" : [0.09815658628940582, 0.312869131565094, 0.5070684552192688, 1], "metallicFactor" : 0, "roughnessFactor" : 0}, "emissiveFactor" : [0.09815658628940582, 0.312869131565094, 0.5070684552192688], "alphaMode" : "OPAQUE", "doubleSided" : false}, {"name" : "", "pbrMetallicRoughness" : {"baseColorFactor" : [0.800000011920929, 0.800000011920929, 0.800000011920929, 1], "metallicFactor" : 0, "roughnessFactor" : 0}, "emissiveFactor" : [0.800000011920929, 0.800000011920929, 0.800000011920929], "alphaMode" : "OPAQUE", "doubleSided" : false}, {"name" : "", "pbrMetallicRoughness" : {"baseColorFactor" : [0.18446499109268188, 0.1037730723619461, 0.02117357961833477, 1], "metallicFactor" : 0, "roughnessFactor" : 0}, "emissiveFactor" : [0.18446499109268188, 0.1037730723619461, 0.02117357961833477], "alphaMode" : "OPAQUE", "doubleSided" : false}, {"name" : "", "pbrMetallicRoughness" : {"baseColorFactor" : [0.03840556740760803, 0.1626419872045517, 0.012789790518581867, 1], "metallicFactor" : 0, "roughnessFactor" : 0}, "emissiveFactor" : [0.03840556740760803, 0.1626419872045517, 0.012789790518581867], "alphaMode" : "OPAQUE", "doubleSided" : false}, {"name" : "", "pbrMetallicRoughness" : {"baseColorFactor" : [1, 1, 1, 1], "metallicFactor" : 0, "roughnessFactor" : 0}, "emissiveFactor" : [1, 1, 1], "alphaMode" : "OPAQUE", "doubleSided" : false}], "meshes" : [{"primitives" : [{"attributes" : {"POSITION" : 1, "NORMAL" : 2, "TEXCOORD_0" : 3}, "indices" : 0, "material" : 0, "mode" : 4}, {"attributes" : {"POSITION" : 5, "NORMAL" : 6, "TEXCOORD_0" : 7}, "indices" : 4, "material" : 1, "mode" : 4}, {"attributes" : {"POSITION" : 9, "NORMAL" : 10, "TEXCOORD_0" : 11}, "indices" : 8, "material" : 2, "mode" : 4}], "name" : "Geometry"}, {"primitives" : [{"attributes" : {"POSITION" : 13, "NORMAL" : 14, "TEXCOORD_0" : 15}, "indices" : 12, "material" : 3, "mode" : 4}, {"attributes" : {"POSITION" : 17, "NORMAL" : 18, "TEXCOORD_0" : 19}, "indices" : 16, "material" : 4, "mode" : 4}], "name" : "Geometry"}, {"primitives" : [{"attributes" : {"POSITION" : 21, "NORMAL" : 22, "TEXCOORD_0" : 23}, "indices" : 20, "material" : 5, "mode" : 4}], "name" : "Geometry"}], "nodes" : [{"matrix" : [-0.0324274192883171, 0.00566222714074653, 0.002619187359599693, 0, -0.00617099569289444, -0.027075533244486628, -0.017868765822053594, 0, -0.0007068594715950506, -0.013912446960327797, 0.021324860974500936, 0, 0.8653637766838074, 0.19912514090538025, 0.5159924030303955, 1], "mesh" : 1, "name" : "Model"}, {"matrix" : [-0.030367074453362498, 1.086469786182158E-05, 3.4447145510488275E-10, 0, -1.8967122343792676E-06, -0.005302301294371661, 0.029900584045866197, 0, 8.25181468319538E-06, 0.023063877631824162, 0.0040899416440889035, 0, 0.040325555950403214, 1.0170390605926514, 0.10510480403900146, 1], "mesh" : 1, "name" : "Model"}, {"matrix" : [-0.033765092319539725, -0.004033376625673766, -0.00011866642148541565, 0, 0.0018837598446350226, -0.016640486338254268, 0.02959576542928523, 0, -0.0027525124297128716, 0.022662397045234064, 0.01291733378965007, 0, -0.0015101860044524074, 0.9126390218734741, 0.4681568145751953, 1], "mesh" : 1, "name" : "Model"}, {"matrix" : [-0.03103068045694407, -0.003706770340993139, -0.00010905417293381907, 0, 0.001731217113498259, -0.015292831179984773, 0.027199032530604607, 0, -0.002529626660528336, 0.020827141959566354, 0.011871205292003681, 0, -0.2337471842765808, 0.8610872626304626, 0.5024089813232422, 1], "mesh" : 1, "name" : "Model"}, {"matrix" : [-0.03129300727249206, -0.01229437173800296, -0.0012627146492130126, 0, 0.006648529741937906, -0.019643671192457742, 0.02649379762417658, 0, -0.008036253570825262, 0.01881486734807434, 0.015966844187284217, 0, -0.4083453118801117, 0.8504230976104736, 0.38621044158935547, 1], "mesh" : 1, "name" : "Model"}, {"matrix" : [-0.028148849746789557, 0.019392464472760777, -0.0012619811042166903, 0, -0.004653493215939802, -0.008882857449355004, -0.032702562686655744, 0, -0.014553948061459595, -0.020626205667570775, 0.007673598721902317, 0, -0.6928355693817139, -0.7334625720977783, 0.2026287317276001, 1], "mesh" : 1, "name" : "Model"}, {"matrix" : [-0.030071980193786343, 0.009379156819997028, -0.0002836187309263331, 0, -0.0020411821344917436, -0.007467933722334365, -0.030535827991633204, 0, -0.007064618065174745, -0.02247051718199475, 0.0059676949075454806, 0, -0.18811558187007904, -0.9803910851478577, 0.2420365810394287, 1], "mesh" : 1, "name" : "Model"}, {"matrix" : [-0.030445091331950502, 0.008446208827962844, -0.0004639238212544387, 0, -0.0035007137468984454, -0.014158289032998149, -0.02803114535670373, 0, -0.005939845377377914, -0.020793077863993276, 0.01124421070349565, 0, -0.3671651780605316, -0.8801030516624451, 0.3625832796096802, 1], "mesh" : 1, "name" : "Model"}, {"matrix" : [-0.030255354888590637, 0.009505570578035985, 0.00026171150983176353, 0, 0.0018780031519865677, 0.006828638840854957, -0.03091364462197362, 0, -0.007190452193259784, -0.022736243623435005, -0.005459119759218669, 0, -0.34311237931251526, -0.9720719456672668, -0.05965918302536011, 1], "mesh" : 1, "name" : "Model"}, {"matrix" : [-0.023783549915457433, -0.021550066271584806, 0.009104841054363818, 0, 0.01850980037587508, -0.025274235347594612, -0.011470017424352977, 0, 0.011035750691676165, -0.0024108359435480436, 0.023121288094946776, 0, 0.9726113677024841, -0.1952449530363083, 0.272624135017395, 1], "mesh" : 1, "name" : "Model"}, {"matrix" : [-0.033788863638406066, 0.005317599795181112, 3.300874313138104E-05, 0, -0.0004497754869827186, -0.003069393358020333, 0.03406379000579184, 0, 0.0040871228320137655, 0.025955367136622186, 0.00239273196383599, 0, 0.23585055768489838, 0.9934792518615723, 0.07619702816009521, 1], "mesh" : 1, "name" : "Model"}, {"matrix" : [-0.030505385188675634, 3.450922788528259E-10, 1.9319645019164098E-06, 0, 1.9022471605023131E-06, 0.005335284064934859, 0.030035200508234758, 0, -2.6037298856514513E-07, 0.02316771588417824, -0.004115382710650179, 0, 0.02588662877678871, 1.0282399654388428, -0.06439656019210815, 1], "mesh" : 1, "name" : "Model"}, {"matrix" : [-0.03256877511739725, -1.703457021116215E-09, -1.0060595531740699E-09, 0, 1.703457021116215E-09, -0.015723943563081284, -0.028521618317911588, 0, 7.760261872260935E-10, -0.022000211266755162, 0.012128697484079302, 0, 0.9892334342002869, 0.10472092032432556, 0.265169620513916, 1], "mesh" : 1, "name" : "Model"}, {"matrix" : [-0.033044598996639196, -1.7283442182855208E-09, -1.020757900213962E-09, 0, 1.728344413130795E-09, -0.015953669316427915, -0.028938317234977872, 0, 7.873637580438568E-10, -0.022321629483496242, 0.01230589506956866, 0, 0.9725265502929688, -0.07181420177221298, 0.3178330659866333, 1], "mesh" : 1, "name" : "Model"}, {"matrix" : [-0.008595892604141637, 0.030765215630025104, 0.009037559096066867, 0, -0.011691771823493263, -0.011719710565103583, 0.028775270506744974, 0, 0.02303074934463326, 0.0032920767890658596, 0.010698507710476788, 0, 1.0022746324539185, 0.12569765746593475, 0.20114076137542725, 1], "mesh" : 1, "name" : "Model"}, {"matrix" : [-0.009045130799303011, -0.027101776635492538, -0.00933255133254628, 0, -0.01232008020151706, 0.01251201629021668, -0.024394308240505203, 0, 0.019963253141498414, -0.0027118659527756383, -0.011473159558578428, 0, 0.9890449047088623, -0.1745014637708664, -0.2424694299697876, 1], "mesh" : 1, "name" : "Model"}, {"matrix" : [-0.006176245197878129, 0, -0.032339371543267804, 0, 0, 0.0329238623380661, 0, 0, 0.024945039667247388, 0, -0.004764059228843879, 0, 1.0027531385421753, -0.07895733416080475, -0.20203644037246704, 1], "mesh" : 1, "name" : "Model"}, {"children" : [0, 1, 2, 3, 4, 5, 6, 7, 8, 9, 10, 11, 12, 13, 14, 15, 16], "matrix" : [345.9007263183594, 0, 0, 0, 0, -5.635438141072044E-05, -345.9007263183548, 0, 0, 345.9007263183548, -5.635438141072044E-05, 0, 0, 346.86309814453125, 0, 1], "mesh" : 0, "name" : "Model"}, {"matrix" : [7.549789970973109E-06, -99.99999999999972, -1.1102230246251565E-14, 0, 7.5497899654219935E-06, 5.773159728050814E-13, -99.99999999999972, 0, 77.13520812988237, 5.823546203197262E-06, 5.8235462074791265E-06, 0, -1456.662353515625, 0, 0, 1], "mesh" : 1, "name" : "Model"}, {"matrix" : [76.06131744384766, 0, 0, 0, 0, -1.2391961530278423E-05, -76.06131744384665, 0, 0, 76.06131744384665, -1.2391961530278423E-05, 0, -439.711669921875, 516.4468994140625, -138.18031311035156, 1], "mesh" : 2, "name" : "Model"}], "scene" : 0, "scenes" : [{"nodes" : [17, 18, 19]}]}